<svg preserveAspectRatio="none" width="100%" height="100%" overflow="visible" style="display: block;" viewBox="0 0 13.9739 11.3073" fill="none" xmlns="http://www.w3.org/2000/svg">
<g id="Container">
<path id="Icon" d="M1.76669 11.3073C1.27441 11.3073 0.856895 11.1359 0.514137 10.7931C0.171379 10.4504 0 10.0329 0 9.54059V1.76669C0 1.27441 0.171379 0.856895 0.514137 0.514137C0.856895 0.171379 1.27441 0 1.76669 0H12.2073C12.6995 0 13.1171 0.171379 13.4598 0.514137C13.8026 0.856895 13.9739 1.27441 13.9739 1.76669V9.54059C13.9739 10.0329 13.8026 10.4504 13.4598 10.7931C13.1171 11.1359 12.6995 11.3073 12.2073 11.3073H1.76669V11.3073M1.76669 9.54059H12.2073V9.54059V9.54059V3.10002H1.76669V9.54059V9.54059V9.54059V9.54059M3.98697 8.98697L3.05364 8.05364L4.77031 6.32031L3.03697 4.58697L3.98697 3.65364L6.65364 6.32031L3.98697 8.98697V8.98697M6.98697 8.98697V7.65364H10.987V8.98697H6.98697V8.98697" fill="#FFB224"/>
</g>
</svg>
