<svg preserveAspectRatio="none" width="100%" height="100%" overflow="visible" style="display: block;" viewBox="0 0 13.9739 13.9739" fill="none" xmlns="http://www.w3.org/2000/svg">
<g id="Container">
<path id="Icon" d="M2.91161 8.39567H5.21814L8.29712 5.3167C8.41596 5.19786 8.50352 5.06513 8.5598 4.91851C8.61608 4.77189 8.64422 4.62334 8.64422 4.47285C8.64422 4.32237 8.6133 4.17623 8.55147 4.03444C8.48963 3.89265 8.40485 3.76234 8.29712 3.6435L7.68769 3.01959C7.56885 2.90074 7.43681 2.81161 7.29156 2.75219C7.14631 2.69277 6.99445 2.66306 6.836 2.66306C6.69075 2.66306 6.54481 2.69277 6.39819 2.75219C6.25157 2.81161 6.11884 2.8976 6 3.01016L2.91161 6.08914V8.39567V8.39567M7.4558 4.46814V4.46814L6.83914 3.85148V3.85148L7.4558 4.46814V4.46814M4.10002 7.20726V6.57392L5.44421 5.23916L5.76812 5.53916L6.06812 5.86307L4.73336 7.20726H4.10002V7.20726M5.76812 5.53916L6.06812 5.86307V5.86307L5.44421 5.23916V5.23916L5.76812 5.53916V5.53916M6.63481 8.39567H11.0623V7.06234H7.96814L6.63481 8.39567V8.39567M0 13.9739V1.76669C0 1.27441 0.171379 0.856895 0.514137 0.514137C0.856895 0.171379 1.27441 0 1.76669 0H12.2073C12.6995 0 13.1171 0.171379 13.4598 0.514137C13.8026 0.856895 13.9739 1.27441 13.9739 1.76669V9.54059C13.9739 10.0329 13.8026 10.4504 13.4598 10.7931C13.1171 11.1359 12.6995 11.3073 12.2073 11.3073H2.66667L0 13.9739V13.9739M2.1 9.54059H12.2073V9.54059V9.54059V1.76669V1.76669V1.76669H1.76669V1.76669V1.76669V9.86666L2.1 9.54059V9.54059M1.76669 9.54059V9.54059V1.76669V1.76669V1.76669V1.76669V1.76669V1.76669V9.54059V9.54059V9.54059V9.54059V9.54059" fill="#FFB224"/>
</g>
</svg>
